# xmcd CD database file
#
# Track frame offsets:
#	150
#	19175
#	41075
#
# Disc length: 770 seconds
#
# Revision: 0
# Processed by: cddbd v1.5.1PL0 Copyright (c) Steve Scherf et al.
# Submitted via: CDex 1.51
#
DISCID=1e030003
DTITLE=ストレンジヌードカルト - 空色のフィナーレ/花を買う
DYEAR=2004
DGENRE=Pop
TTITLE0=空色のフィナーレ
TTITLE1=花を買う
TTITLE2=１，２，３！
EXTD=YEAR: 2004
EXTT0=
EXTT1=
EXTT2=
PLAYORDER=
